<svg viewBox="0 0 14 22" xmlns="http://www.w3.org/2000/svg" fill="#1E1E1E">
  <path d="M13.07 7.68a3.61 3.61 0 0 0 -1.72 3.04 3.51 3.51 0 0 0 2.14 3.22 8.39 8.39 0 0 1 -1.1 2.26c-.68.98-1.39 1.96-2.48 1.96s-1.36-.63-2.61-.63c-1.22 0-1.65.65-2.64.65s-1.68-.91-2.48-2.02a9.78 9.78 0 0 1 -1.66-5.28c0-3.1 2.01-4.74 4-4.74 1.05 0 1.93.69 2.59.69.63 0 1.61-.73 2.81-.73a3.76 3.76 0 0 1 3.16 1.58zm-3.73-2.89a3.56 3.56 0 0 0 .85-2.22 1.53 1.53 0 0 0 0-.32 3.57 3.57 0 0 0 -2.34 1.21 3.46 3.46 0 0 0 -.88 2.16 1.42 1.42 0 0 0 0 .29 1.19 1.19 0 0 0 .22.02 3.09 3.09 0 0 0 2.16-1.14z"/>
</svg>
